<?xml version="1.0" encoding="utf-8"?>
<!-- Generator: Adobe Illustrator 22.1.0, SVG Export Plug-In . SVG Version: 6.00 Build 0)  -->
<svg version="1.1" id="Capa_1" xmlns="http://www.w3.org/2000/svg" xmlns:xlink="http://www.w3.org/1999/xlink" x="0px" y="0px"
	 viewBox="0 0 109 30" style="enable-background:new 0 0 109 30;" xml:space="preserve">
<style type="text/css">
	.st0{fill:#252C36;}
</style>
<g>
	<g>
		<path class="st0" d="M17.6,21.8c0-0.4-0.3-0.6-0.6-0.6c-0.6,0-1.4,0.1-2,0.1c-3.4,0-6.2-2.8-6.2-6.2V1.4V0.2C8.8,0.1,8.7,0,8.6,0
			H0.1C0.1,0,0,0.1,0,0.1V15c0,8.3,6.7,15,15,15c0.8,0,1.6-0.1,2.4-0.2c0.1,0,0.2-0.1,0.2-0.2L17.6,21.8z"/>
		<path class="st0" d="M15,0c-0.8,0-1.7,0.1-2.5,0.2c-0.1,0-0.2,0.1-0.2,0.2v7.8c0,0.4,0.3,0.7,0.6,0.6c0.3,0,2-0.1,2-0.1
			c3.4,0,6.2,2.8,6.2,6.2l0,0h0v13.5c0,0.1,0.1,0.1,0.1,0.1C26.4,26.2,30,21,30,15C30,6.7,23.3,0,15,0z"/>
	</g>
	<path class="st0" d="M63.2,6.2v-4l-4.8,0.4v3.7H63.2z M72,4.9l-4.6,0.4v15.3c0,3,1.4,4.8,4.9,4.8c1.5,0,2.6-0.3,3.7-0.7v-3.7
		c-1,0.4-1.8,0.5-2.7,0.5c-0.8,0-1.2-0.4-1.2-1.2v-7.6h3.9V8.9H72V4.9z M58.4,25.1h4.8V8.9h-4.8V25.1z M49.3,21.6
		c-0.6,0.2-1.7,0.2-2.6,0.2c-1.5,0-2.8,0-3.6-0.1v-4.7h3.5c2.5,0,3.6,0.7,3.6,2.4C50.1,20.3,49.8,21,49.3,21.6z M43,8.8
		c0.8,0,1.8-0.1,2.9-0.1c2.6,0,3.7,0.8,3.7,2.4c0,0.9-0.4,1.6-1.2,2.2c-0.7,0.1-1.5,0.2-2.4,0.2c-1.1,0-2.2,0-3-0.1V8.8z M51.8,14.7
		c1.5-0.9,2.8-2.3,2.8-4.4c0-3.5-2.7-5.4-8.4-5.4h-8.1v20.2h9.4c5,0,7.6-1.9,7.6-5.7C55.1,16.9,53.7,15.5,51.8,14.7z M86,15.5
		c-2.4-0.4-3-0.7-3-1.4c0-0.4,0.1-0.7,0.3-0.9c0.6-0.2,1.6-0.3,2.5-0.3c1.9,0,3.6,0.3,5,0.7V9.7c-1.1-0.6-2.9-1.1-5.4-1.1
		c-4.2,0-6.9,2-6.9,5.4c0,3.3,1.9,4.3,5.5,4.9c2.6,0.5,3.2,0.8,3.2,1.6c0,0.4-0.1,0.6-0.2,0.8c-0.6,0.2-1.6,0.4-2.9,0.4
		c-1.8,0-3.9-0.4-5.1-0.8v3.7c1.3,0.5,3.4,0.8,5.3,0.8c4.5,0,7.4-1.4,7.4-5C91.7,17.3,89.8,16.2,86,15.5z M103.3,21.2
		c-0.6,0.4-1.3,0.6-2.2,0.6c-1.9,0-3-1.6-3-4.4c0-1.6,0.3-3,0.9-3.7c0.6-0.5,1.3-0.7,2.2-0.7c2,0,2.9,1.6,2.9,4
		C104.2,18.7,103.9,20.2,103.3,21.2z M101.5,8.6c-5.5,0-8,3.7-8,8.8c0,5,2.9,8,7.5,8c5.5,0,7.9-3.7,7.9-8.7
		C108.9,11.7,106.1,8.6,101.5,8.6z"/>
</g>
</svg>